<?xml version="1.0" encoding="UTF-8"?>
<svg version="1.1" xmlns="http://www.w3.org/2000/svg" width="300" height="300">
<path d="M0 0 C3.95822047 3.7544309 6.78327485 6.97723191 7.375 12.5 C7.30551905 17.93936571 5.04937867 22.57275394 2 27 C-1.86282781 30.75246131 -5.78136283 32.21899366 -10.8125 33.75 C-11.50537109 33.97042969 -12.19824219 34.19085938 -12.91210938 34.41796875 C-14.60502068 34.95503027 -16.30211158 35.47888708 -18 36 C-17.07960937 36.25652344 -16.15921875 36.51304688 -15.2109375 36.77734375 C-3.20517275 40.33241782 6.31585304 46.06187954 16 54 C19.46006044 52.53908559 21.38513038 50.65551588 23.875 47.875 C29.49341628 42.09818724 35.89292157 38.68268308 43 35 C44.05445313 34.43925781 45.10890625 33.87851563 46.1953125 33.30078125 C49.72960009 31.66162002 52.14946477 31.49143874 56 32 C58 33.5625 58 33.5625 59 36 C59.19524824 41.07645433 57.72766549 43.66916184 54.5 47.375 C53.02272857 48.9430873 51.52298674 50.47701326 50 52 C50.6290625 52.20753906 51.258125 52.41507813 51.90625 52.62890625 C60.13276824 55.58995724 67.32824545 60.40839886 72 68 C72.5 71.0625 72.5 71.0625 72 74 C69.76793569 76.84780619 68.45007001 77.84997666 65 79 C65.20496094 79.56847656 65.40992188 80.13695313 65.62109375 80.72265625 C69.85221508 92.84917146 69.85221508 92.84917146 67.6875 98.3125 C63.05107638 102.94892362 57.43940821 102.88196412 51.125 103.1875 C48.54914569 103.03294874 46.46492844 102.66691787 44 102 C44.13277344 102.59425781 44.26554688 103.18851562 44.40234375 103.80078125 C45.41815519 108.56842182 46.07443861 113.0607948 46.25 117.9375 C46.38357689 120.65589697 46.38357689 120.65589697 47 123 C49.78412726 125.05893153 49.78412726 125.05893153 53 126 C56.72173724 130.10674454 57.36513938 134.04262408 57.26953125 139.4140625 C56.20029843 149.67249911 50.38247905 159.19354063 42.7734375 165.98828125 C37.55457615 169.96410471 34.69464433 171.12397489 28 171 C27.85304687 171.54527344 27.70609375 172.09054688 27.5546875 172.65234375 C24.94673932 181.4204454 20.61543046 188.75381457 13 194 C12.01 194 11.02 194 10 194 C9.34 192.68 8.68 191.36 8 190 C7.19175781 190.48210937 6.38351563 190.96421875 5.55078125 191.4609375 C4.48214844 192.09257812 3.41351563 192.72421875 2.3125 193.375 C1.25675781 194.00148437 0.20101562 194.62796875 -0.88671875 195.2734375 C-3.56360173 196.75798239 -6.15427618 197.89883778 -9 199 C-8.34515625 199.35191406 -7.6903125 199.70382813 -7.015625 200.06640625 C-4.00233647 201.69647617 -1.00131718 203.34799917 2 205 C3.54494141 205.82951172 3.54494141 205.82951172 5.12109375 206.67578125 C13.40999161 211.26899217 20.44490892 216.57568542 25.3125 224.875 C25.98732422 225.98488281 25.98732422 225.98488281 26.67578125 227.1171875 C32.4733856 239.73852086 31 246.99129977 31 262 C-14.87 262 -60.74 262 -108 262 C-108 241.82198304 -107.49347586 229.46848174 -94.6875 214.9375 C-87.30093834 207.87272915 -77.08099078 203.51511531 -68 199 C-68.97582031 198.51789063 -69.95164062 198.03578125 -70.95703125 197.5390625 C-72.24224049 196.90114842 -73.52739382 196.26312169 -74.8125 195.625 C-75.45509766 195.30789062 -76.09769531 194.99078125 -76.75976562 194.6640625 C-79.63194461 193.23541389 -82.3267821 191.78214527 -85 190 C-85.66 191.32 -86.32 192.64 -87 194 C-91.27023922 193.50728009 -94.17454182 191.05511365 -97 188 C-100.81457508 182.65778704 -103.6042306 177.42053926 -105 171 C-106.03125 171.0825 -107.0625 171.165 -108.125 171.25 C-112.72876516 170.95298289 -114.41130825 169.82514032 -118 167 C-118.969375 166.319375 -119.93875 165.63875 -120.9375 164.9375 C-128.1201914 158.79440867 -133.1727081 149.00285119 -134.27734375 139.65234375 C-134.48374405 134.70699245 -133.80881271 131.21321906 -131 127 C-128.62517153 124.8478117 -127.06488281 124.0216276 -124 123 C-123.86722656 121.81921875 -123.73445313 120.6384375 -123.59765625 119.421875 C-123.4194102 117.86456738 -123.24101707 116.30727658 -123.0625 114.75 C-122.97548828 113.97269531 -122.88847656 113.19539063 -122.79882812 112.39453125 C-122.71181641 111.64042969 -122.62480469 110.88632813 -122.53515625 110.109375 C-122.456604 109.41811523 -122.37805176 108.72685547 -122.29711914 108.01464844 C-121.99455017 105.96304687 -121.53587616 104.00217465 -121 102 C-121.51691406 102.17015625 -122.03382812 102.3403125 -122.56640625 102.515625 C-125.77473397 103.15420066 -128.67506188 102.95890746 -131.9375 102.75 C-133.14277344 102.68296875 -134.34804687 102.6159375 -135.58984375 102.546875 C-139.78424235 101.87423376 -142.72108414 100.6277111 -145.375 97.25 C-147.0648952 91.16637729 -144.0593812 84.71186862 -142 79 C-142.78375 78.54625 -143.5675 78.0925 -144.375 77.625 C-147 76 -147 76 -149 74 C-149.5625 71.375 -149.5625 71.375 -149 68 C-146.97349654 65.01572546 -144.56640893 62.52467871 -142 60 C-141.26523438 59.24976562 -141.26523438 59.24976562 -140.515625 58.484375 C-136.54775956 54.7840061 -132.11319991 53.39760798 -127 52 C-127.48210937 51.54109375 -127.96421875 51.0821875 -128.4609375 50.609375 C-129.09257812 49.99578125 -129.72421875 49.3821875 -130.375 48.75 C-131.00148438 48.14671875 -131.62796875 47.5434375 -132.2734375 46.921875 C-134.01270439 44.98585847 -135.07671937 43.42718104 -136 41 C-135.55555556 34.55555556 -135.55555556 34.55555556 -133 32 C-126.84113694 31.26403523 -122.91639117 33.04543772 -117.6875 35.9375 C-116.94346924 36.3399292 -116.19943848 36.7423584 -115.43286133 37.15698242 C-109.12715981 40.68727025 -104.03968434 44.80127237 -99 50 C-98.25363281 50.74636719 -97.50726563 51.49273437 -96.73828125 52.26171875 C-96.16464844 52.83535156 -95.59101562 53.40898438 -95 54 C-91.38826976 52.71862092 -88.84091564 51.2338469 -85.9375 48.75 C-77.93363407 42.36817999 -68.87814442 38.49139041 -59 36 C-60.01320313 35.69707031 -61.02640625 35.39414063 -62.0703125 35.08203125 C-63.42210689 34.6595955 -64.77365666 34.23637642 -66.125 33.8125 C-66.79015625 33.61591797 -67.4553125 33.41933594 -68.140625 33.21679688 C-73.8225988 31.40636405 -78.04883994 28.90587207 -81.4609375 23.82421875 C-83.70300953 18.58313585 -84.9039637 14.69497134 -84 9 C-79.51690799 0.19743247 -71.56136034 -3.56789077 -62.78515625 -7.10546875 C-42.87457213 -13.50031274 -17.38990112 -12.40460063 0 0 Z M-50 10.25 C-50.71816895 10.37133301 -51.43633789 10.49266602 -52.17626953 10.61767578 C-56.31860159 11.41258999 -59.57643599 12.51256678 -63 15 C-63 15.33 -63 15.66 -63 16 C-46.61956424 17.37115755 -30.38043576 17.37115755 -14 16 C-18.73642903 10.45868761 -27.24885107 9.91973078 -34.125 9.125 C-39.57318441 8.79837024 -44.64543721 9.3382181 -50 10.25 Z " fill="#000003" transform="translate(189,38)"/>
<path d="M0 0 C0.99 0.33 1.98 0.66 3 1 C3.33 8.59 3.66 16.18 4 24 C4.99 23.67 5.98 23.34 7 23 C5.54682061 26.3907519 3.58699688 28.41300312 1 31 C0.505 32.485 0.505 32.485 0 34 C0.99 33.9175 1.98 33.835 3 33.75 C11.11414271 33.81491314 17.34928976 39.56895312 23.484375 44.29296875 C25.77740833 45.84895565 27.29843716 46.5770918 30 47 C29.57388649 45.24719267 29.13360733 43.49782565 28.6875 41.75 C28.44386719 40.77546875 28.20023438 39.8009375 27.94921875 38.796875 C27.00347644 36.01024335 25.89291287 34.22695632 24 32 C24.33 31.34 24.66 30.68 25 30 C30 35.625 30 35.625 30 39 C30.99 39 31.98 39 33 39 C33.0928125 37.88625 33.0928125 37.88625 33.1875 36.75 C34.24185138 33.1814261 35.99909773 32.07754772 39 30 C37.87114558 32.86555352 36.69345961 35.68665048 35.4375 38.5 C34.24344131 41.40727333 33.4677675 43.9127345 33 47 C38.90594453 44.90010861 43.39506674 41.65307903 48.3515625 37.83984375 C53.31552111 34.39143003 56.97971391 33.76391035 63 34 C61.47182124 31.24927823 60.04684208 29.04684208 57.8125 26.8125 C57.214375 26.214375 56.61625 25.61625 56 25 C56 24.34 56 23.68 56 23 C57.485 23.495 57.485 23.495 59 24 C59.33 16.41 59.66 8.82 60 1 C60.99 0.67 61.98 0.34 63 0 C63.31497105 2.43720319 63.62724873 4.87469453 63.9375 7.3125 C64.0310376 8.04001465 64.1245752 8.7675293 64.22094727 9.51708984 C64.75061649 13.71829822 65.15689358 17.89836581 65.4375 22.125 C65.78847069 26.4341402 66.72247156 29.3361499 69 33 C70.98 31.68 72.96 30.36 75 29 C74.5359375 30.0828125 74.5359375 30.0828125 74.0625 31.1875 C72.50836296 35.30139217 71.5889083 37.74415515 72.99609375 42.04296875 C73.47175781 43.08066406 73.94742188 44.11835938 74.4375 45.1875 C77 50.85013624 77 50.85013624 77 53 C46.97 53 16.94 53 -14 53 C-11 43 -11 43 -9 39 C-9.36865309 35.40563236 -10.58256679 32.30734415 -12 29 C-9.03 30.98 -9.03 30.98 -6 33 C-2.47357605 27.39240781 -2.29081366 21.88126076 -1.875 15.375 C-1.72931788 13.3201153 -1.58098633 11.26541629 -1.4296875 9.2109375 C-1.37022949 8.30649902 -1.31077148 7.40206055 -1.24951172 6.47021484 C-1.02212687 4.21906031 -0.61419912 2.17346624 0 0 Z " fill="#FA0000" transform="translate(119,247)"/>
<path d="M0 0 C2.6875 -0.3125 2.6875 -0.3125 5 0 C5 0.66 5 1.32 5 2 C6.093125 2.0825 7.18625 2.165 8.3125 2.25 C12 3 12 3 13.75 4.625 C15 7 15 7 16.25 10.125 C18.77636842 16.3273013 23.07920557 21.78369873 27.4375 26.8125 C29.32752669 29.45853737 29.13109829 30.82742145 29 34 C28.03578125 34.44730469 27.0715625 34.89460938 26.078125 35.35546875 C24.80177027 35.96549123 23.52574583 36.57620513 22.25 37.1875 C21.61578125 37.47947266 20.9815625 37.77144531 20.328125 38.07226562 C14.69219997 40.80216681 11.90785217 44.48812347 8.625 49.75 C6.77836116 52.32512939 6.10035875 52.95729415 3.0625 54.25 C-1.11266452 53.90917024 -3.19049226 51.86099086 -6 49 C-6.68835938 48.40316406 -7.37671875 47.80632812 -8.0859375 47.19140625 C-10.41613842 44.52356397 -10.83179742 42.58031072 -11.5 39.125 C-12.90268767 32.8925175 -14.54957833 29.25173883 -19.3125 24.875 C-19.869375 24.25625 -20.42625 23.6375 -21 23 C-20.56505442 18.63279128 -18.05220067 16.94333606 -14.8359375 14.3046875 C-13 13 -13 13 -10.375 12 C-6.00096319 10.15830029 -3.63761778 6.22210075 -1.5 2.125 C-1.005 1.42375 -0.51 0.7225 0 0 Z M5 22 C2.36 23.98 -0.28 25.96 -3 28 C-2.34 29.32 -1.68 30.64 -1 32 C-0.0925 31.38125 0.815 30.7625 1.75 30.125 C4.14948817 28.55610389 6.40961612 27.19556179 9 26 C7.68 24.68 6.36 23.36 5 22 Z " fill="#000000" transform="translate(250,196)"/>
<path d="M0 0 C2.3046875 -0.26953125 2.3046875 -0.26953125 5 0 C6.6953125 1.86328125 6.6953125 1.86328125 8.125 4.3125 C10.79248864 8.78955526 12.45922678 11.37227758 17.375 13.375 C21.22881725 15.10257325 23.40769819 16.67861331 26 20 C25.67239268 23.29572961 24.42674156 24.84616134 22.125 27.125 C18.38700758 31.27435043 17.32172778 35.67687717 16 41 C14.61685925 45.54460531 12.8070544 47.19003128 9 50 C8.360625 50.763125 7.72125 51.52625 7.0625 52.3125 C5 54 5 54 2.10546875 53.9296875 C-1.87724735 52.73737752 -2.61324611 51.31545273 -4.75 47.8125 C-9.74960715 40.42344529 -15.82856152 37.14955977 -24 34 C-23.87330934 27.91884855 -21.95332921 25.40127978 -17.84375 21.0390625 C-14.11420494 16.91443851 -11.4362415 12.32058135 -9.5 7.125 C-8 4 -8 4 -5.5 2.5625 C-3 2 -3 2 0 2 C0 1.34 0 0.68 0 0 Z M-1 22 C-2.485 23.98 -2.485 23.98 -4 26 C-2.54195831 26.81302325 -1.08355685 27.62540131 0.375 28.4375 C1.18710937 28.88996094 1.99921875 29.34242188 2.8359375 29.80859375 C4.20996622 30.5650536 5.59709261 31.29854631 7 32 C7.33 30.68 7.66 29.36 8 28 C5.03 26.02 2.06 24.04 -1 22 Z " fill="#000000" transform="translate(46,196)"/>
<path d="M0 0 C0.33 0 0.66 0 1 0 C5.35825483 26.13504012 7.95851206 52.06823912 1 78 C0.79149414 78.81581543 0.58298828 79.63163086 0.36816406 80.47216797 C-0.25266459 82.88413924 -0.89902613 85.28693551 -1.5625 87.6875 C-1.75996826 88.41356445 -1.95743652 89.13962891 -2.16088867 89.88769531 C-2.75390625 91.88671875 -2.75390625 91.88671875 -4 95 C-4.99 95.33 -5.98 95.66 -7 96 C-5.52559622 88.23246297 -3.74181562 80.55663366 -1.875 72.875 C-1.59785156 71.72773438 -1.32070312 70.58046875 -1.03515625 69.3984375 C-0.35851238 66.59853183 0.31990614 63.79906929 1 61 C0.34 61 -0.32 61 -1 61 C-1.07476562 61.65742188 -1.14953125 62.31484375 -1.2265625 62.9921875 C-2.57627841 72.75777908 -5.73015116 81.74571082 -9 91 C-9.33 91 -9.66 91 -10 91 C-9.26309887 84.51527007 -7.64681249 78.30760257 -6 72 C-8.82058486 69.65888973 -8.82058486 69.65888973 -12 70.3125 C-15.02709118 70.95551695 -15.02709118 70.95551695 -18 72 C-28.00349815 72.77536644 -34.59972786 72.0831326 -42.5625 66.0625 C-44 64 -44 64 -43.75 61.25 C-43.5025 60.5075 -43.255 59.765 -43 59 C-34.74179431 56.40919037 -34.74179431 56.40919037 -31 57 C-29.3174387 58.31321858 -27.65002828 59.64613064 -26 61 C-24.68 61 -23.36 61 -22 61 C-22.33 60.01 -22.66 59.02 -23 58 C-21.875 55.8125 -21.875 55.8125 -20 54 C-17.5 53.5625 -17.5 53.5625 -15 54 C-13.1875 55.5 -13.1875 55.5 -12 57 C-11.34 55.02 -10.68 53.04 -10 51 C-11.32 51 -12.64 51 -14 51 C-14 50.01 -14 49.02 -14 48 C-9.38987758 45.04952165 -6.63470383 43.4502728 -1 44 C-1.33 43.01 -1.66 42.02 -2 41 C-2.66 41 -3.32 41 -4 41 C-4.33 37.37 -4.66 33.74 -5 30 C-4.34 30 -3.68 30 -3 30 C-1.66317243 20.00624051 -0.59788123 10.0695786 0 0 Z " fill="#FF00FF" transform="translate(207,127)"/>
<path d="M0 0 C0.33 0 0.66 0 1 0 C1.08302368 1.04341553 1.08302368 1.04341553 1.16772461 2.10791016 C1.42166855 5.28049178 1.67954821 8.45274183 1.9375 11.625 C2.02451172 12.71941406 2.11152344 13.81382812 2.20117188 14.94140625 C2.28818359 16.00488281 2.37519531 17.06835938 2.46484375 18.1640625 C2.543396 19.13811035 2.62194824 20.1121582 2.70288086 21.11572266 C3.01087938 24.10561134 3.47612313 27.04095922 4 30 C4.66 30 5.32 30 6 30 C5.67 33.63 5.34 37.26 5 41 C4.34 41 3.68 41 3 41 C2.67 41.99 2.34 42.98 2 44 C2.845625 43.9175 3.69125 43.835 4.5625 43.75 C9.03634062 44.07537023 11.24893952 45.59932129 15 48 C15 48.99 15 49.98 15 51 C13.68 51 12.36 51 11 51 C11.66 52.98 12.32 54.96 13 57 C14.98 56.505 14.98 56.505 17 56 C17.33 56.99 17.66 57.98 18 59 C19.485 58.505 19.485 58.505 21 58 C20.34 56.68 19.68 55.36 19 54 C20.9375 54.8125 20.9375 54.8125 23 56 C23.33 56.99 23.66 57.98 24 59 C23.67 59.66 23.34 60.32 23 61 C27.15625161 60.72652991 27.15625161 60.72652991 30.38671875 58.4453125 C32 57 32 57 34.375 56.85546875 C35.24125 56.96503906 36.1075 57.07460937 37 57.1875 C37.86625 57.28417969 38.7325 57.38085938 39.625 57.48046875 C42 58 42 58 45 60 C44.78087133 63.83475164 44.05971606 64.94164113 41.25 67.6875 C36.07090203 71.3726274 32.35674888 72.27739978 26 72.25 C24.205625 72.25773437 24.205625 72.25773437 22.375 72.265625 C19.11472164 72.00902902 16.97193772 71.26563555 14 70 C10.16765785 70.17128044 10.16765785 70.17128044 7 72 C7.28875 72.95261719 7.5775 73.90523438 7.875 74.88671875 C8.431875 76.76810547 8.431875 76.76810547 9 78.6875 C9.556875 80.54955078 9.556875 80.54955078 10.125 82.44921875 C10.87703457 85.5010019 11.19034899 87.88898362 11 91 C8.8092654 88.8092654 8.40779025 87.62599877 7.52734375 84.7109375 C7.13772461 83.42123047 7.13772461 83.42123047 6.74023438 82.10546875 C6.47533203 81.20441406 6.21042969 80.30335938 5.9375 79.375 C5.5343457 78.05822266 5.5343457 78.05822266 5.12304688 76.71484375 C3.55829695 71.46259088 2.51516735 66.45695783 2 61 C1.34 61 0.68 61 0 61 C0.17128418 61.70495605 0.34256836 62.40991211 0.51904297 63.13623047 C1.3064255 66.38199032 2.09072994 69.62848674 2.875 72.875 C3.14441406 73.98359375 3.41382812 75.0921875 3.69140625 76.234375 C5.27444479 82.79819335 6.74079011 89.36615951 8 96 C7.01 95.67 6.02 95.34 5 95 C4.04858398 92.78198242 4.04858398 92.78198242 3.24609375 89.85546875 C2.94896484 88.78490234 2.65183594 87.71433594 2.34570312 86.61132812 C2.04599609 85.48146484 1.74628906 84.35160156 1.4375 83.1875 C0.98213867 81.55651367 0.98213867 81.55651367 0.51757812 79.89257812 C-2.70605796 68.07257916 -4.38852777 56.82119195 -4.375 44.5625 C-4.37628906 43.32927002 -4.37757812 42.09604004 -4.37890625 40.82543945 C-4.22555608 27.03350832 -2.26675726 13.59300781 0 0 Z " fill="#FF00FF" transform="translate(93,127)"/>
<path d="M0 0 C6.70923222 0.8239408 12.09104721 5.3177702 17.4375 9.25 C23.06143403 13.18675382 28.86255863 12.94478128 35.5625 12.4375 C41.1807712 10.76187526 45.54583989 7.48907 50.23046875 4.05859375 C54.5777829 1.03659145 57.21131755 0.19426443 62.5625 0.4375 C63.33502241 1.81155173 64.1054232 3.18679634 64.875 4.5625 C65.51888672 5.71105469 65.51888672 5.71105469 66.17578125 6.8828125 C67.70458166 9.69925043 69.12935288 12.57120577 70.5625 15.4375 C43.8325 15.4375 17.1025 15.4375 -10.4375 15.4375 C-2.98679577 0.53609155 -2.98679577 0.53609155 0 0 Z " fill="#000000" transform="translate(120.4375,284.5625)"/>
<path d="M0 0 C0.99 0 1.98 0 3 0 C3 0.66 3 1.32 3 2 C3.598125 1.835 4.19625 1.67 4.8125 1.5 C7.57028554 0.86964902 10.17635229 1 13 1 C13.40992188 1.84304687 13.81984375 2.68609375 14.2421875 3.5546875 C14.78101563 4.65039062 15.31984375 5.74609375 15.875 6.875 C16.40867187 7.96554688 16.94234375 9.05609375 17.4921875 10.1796875 C18.84535937 13.03882547 18.84535937 13.03882547 21 15 C21 16.32 21 17.64 21 19 C20.39671875 19.07476562 19.7934375 19.14953125 19.171875 19.2265625 C14.4116009 19.9055851 14.4116009 19.9055851 10.51171875 22.46875 C9.29312506 24.28018236 9.29312506 24.28018236 8 27 C7.01 26.67 6.02 26.34 5 26 C5 25.34 5 24.68 5 24 C3.68 24.33 2.36 24.66 1 25 C0.67 24.34 0.34 23.68 0 23 C-1.32 23.33 -2.64 23.66 -4 24 C-4.33773438 23.15695313 -4.67546875 22.31390625 -5.0234375 21.4453125 C-5.46945312 20.34960938 -5.91546875 19.25390625 -6.375 18.125 C-6.81585938 17.03445312 -7.25671875 15.94390625 -7.7109375 14.8203125 C-8.83051338 11.93670638 -8.83051338 11.93670638 -11 10 C-10.87109375 8.0078125 -10.87109375 8.0078125 -10 6 C-8.22265625 4.8046875 -8.22265625 4.8046875 -6.0625 3.875 C-3.46790013 2.73544797 -2.03450153 2.03450153 0 0 Z " fill="#000000" transform="translate(277,164)"/>
<path d="M0 0 C3.41483721 0.60979236 5.27242295 1.91420579 8 4 C9.98450156 5.03041427 11.98199105 6.03685937 14 7 C13.5479529 9.44105433 12.92964958 11.11511886 11.625 13.25 C9.5766051 16.71651445 8.34976806 20.2077945 7 24 C5.68 23.67 4.36 23.34 3 23 C2.67 23.66 2.34 24.32 2 25 C0.68 24.67 -0.64 24.34 -2 24 C-2.33 24.99 -2.66 25.98 -3 27 C-4.875 26.25 -4.875 26.25 -7 25 C-7.2784375 24.34 -7.556875 23.68 -7.84375 23 C-8.83368683 20.80327582 -8.83368683 20.80327582 -11.1640625 20.171875 C-11.97617188 20.03265625 -12.78828125 19.8934375 -13.625 19.75 C-14.44226563 19.60046875 -15.25953125 19.4509375 -16.1015625 19.296875 C-16.72804688 19.19890625 -17.35453125 19.1009375 -18 19 C-17.57952778 14.51496303 -15.61514521 11.60634876 -13.2109375 7.9375 C-11.82443721 5.71909953 -10.84963231 3.47165764 -10 1 C-9.236875 1.185625 -8.47375 1.37125 -7.6875 1.5625 C-4.91032625 2.22819173 -4.91032625 2.22819173 -2 1 C-1.34 1.33 -0.68 1.66 0 2 C0 1.34 0 0.68 0 0 Z " fill="#000000" transform="translate(21,164)"/>
<path d="M0 0 C0.33 0 0.66 0 1 0 C5.35825483 26.13504012 7.95851206 52.06823912 1 78 C0.79149414 78.81581543 0.58298828 79.63163086 0.36816406 80.47216797 C-0.25266459 82.88413924 -0.89902613 85.28693551 -1.5625 87.6875 C-1.75996826 88.41356445 -1.95743652 89.13962891 -2.16088867 89.88769531 C-2.75390625 91.88671875 -2.75390625 91.88671875 -4 95 C-5.485 95.495 -5.485 95.495 -7 96 C-5.52559622 88.23246297 -3.74181562 80.55663366 -1.875 72.875 C-1.59785156 71.72773438 -1.32070312 70.58046875 -1.03515625 69.3984375 C-0.35851238 66.59853183 0.31990614 63.79906929 1 61 C0.34 61 -0.32 61 -1 61 C-0.9278125 60.28457031 -0.855625 59.56914062 -0.78125 58.83203125 C1.10498928 46.13317855 1.10498928 46.13317855 -1 34 C-1.33 36.31 -1.66 38.62 -2 41 C-2.66 41 -3.32 41 -4 41 C-4.33 37.37 -4.66 33.74 -5 30 C-4.34 30 -3.68 30 -3 30 C-1.66317243 20.00624051 -0.59788123 10.0695786 0 0 Z " fill="#FF0000" transform="translate(207,127)"/>
<path d="M0 0 C0.33 0 0.66 0 1 0 C1.08302368 1.04341553 1.08302368 1.04341553 1.16772461 2.10791016 C1.42166855 5.28049178 1.67954821 8.45274183 1.9375 11.625 C2.02451172 12.71941406 2.11152344 13.81382812 2.20117188 14.94140625 C2.28818359 16.00488281 2.37519531 17.06835938 2.46484375 18.1640625 C2.543396 19.13811035 2.62194824 20.1121582 2.70288086 21.11572266 C3.01087938 24.10561134 3.47612313 27.04095922 4 30 C4.66 30 5.32 30 6 30 C5.67 33.63 5.34 37.26 5 41 C4.34 41 3.68 41 3 41 C2.67 38.69 2.34 36.38 2 34 C-1.57510407 41.15020814 1.21681709 53.23809792 2 61 C1.34 61 0.68 61 0 61 C0.17128418 61.70495605 0.34256836 62.40991211 0.51904297 63.13623047 C1.3064255 66.38199032 2.09072994 69.62848674 2.875 72.875 C3.14441406 73.98359375 3.41382812 75.0921875 3.69140625 76.234375 C5.27444479 82.79819335 6.74079011 89.36615951 8 96 C7.01 95.67 6.02 95.34 5 95 C4.04858398 92.78198242 4.04858398 92.78198242 3.24609375 89.85546875 C2.94896484 88.78490234 2.65183594 87.71433594 2.34570312 86.61132812 C2.04599609 85.48146484 1.74628906 84.35160156 1.4375 83.1875 C0.98213867 81.55651367 0.98213867 81.55651367 0.51757812 79.89257812 C-2.70605796 68.07257916 -4.38852777 56.82119195 -4.375 44.5625 C-4.37628906 43.32927002 -4.37757812 42.09604004 -4.37890625 40.82543945 C-4.22555608 27.03350832 -2.26675726 13.59300781 0 0 Z " fill="#FF0000" transform="translate(93,127)"/>
<path d="M0 0 C2.97837763 2.55289511 4.29394232 5.51370822 6 9 C6.66 9.66 7.32 10.32 8 11 C8 11.99 8 12.98 8 14 C6.33333333 15.66666667 4.66666667 17.33333333 3 19 C2.13880866 21.17346568 2.13880866 21.17346568 2 23 C1.01 23 0.02 23 -1 23 C-1 22.34 -1 21.68 -1 21 C-1.5775 21.185625 -2.155 21.37125 -2.75 21.5625 C-6.707349 22.33198453 -8.68272593 21.21151604 -12 19 C-13.38671875 16.3984375 -13.38671875 16.3984375 -14.6875 13.375 C-15.12449219 12.37210938 -15.56148437 11.36921875 -16.01171875 10.3359375 C-16.50091797 9.17964844 -16.50091797 9.17964844 -17 8 C-16.05125 7.5875 -15.1025 7.175 -14.125 6.75 C-10.99283376 4.9959869 -10.13499394 4.29148243 -9 1 C-6.33333333 1 -3.66666667 1 -1 1 C-0.67 0.67 -0.34 0.34 0 0 Z " fill="#000000" transform="translate(261,147)"/>
<path d="M0 0 C0.99 0.66 1.98 1.32 3 2 C5.55936559 1.67147918 5.55936559 1.67147918 8 1 C8.66 1 9.32 1 10 1 C10.20625 1.598125 10.4125 2.19625 10.625 2.8125 C12.50222908 5.79900081 14.85853007 6.53033109 18 8 C17.09846541 9.96534541 16.17819891 11.92210625 15.25 13.875 C14.73953125 14.96554688 14.2290625 16.05609375 13.703125 17.1796875 C11.94416275 20.09246444 11.20104693 21.03479883 8 22 C4 22 4 22 2 21 C2 21.66 2 22.32 2 23 C1.01 23 0.02 23 -1 23 C-1.433125 21.88625 -1.86625 20.7725 -2.3125 19.625 C-3.69911119 15.82487666 -3.69911119 15.82487666 -7 14 C-6.39020764 10.58516279 -5.08579421 8.72757705 -3 6 C-1.96958573 4.01549844 -0.96314063 2.01800895 0 0 Z " fill="#000000" transform="translate(39,147)"/>
<path d="M0 0 C2.76276177 0.52268466 5.3260876 1.10869587 8 2 C15.06515051 2.32861165 22.01522343 2.09565123 29 1 C28.67 2.32 28.34 3.64 28 5 C29.32 5.33 30.64 5.66 32 6 C30.6875 7.5 30.6875 7.5 29 9 C28.01 9 27.02 9 26 9 C25.67 9.99 25.34 10.98 25 12 C23.02 12 21.04 12 19 12 C18.87625 12.928125 18.7525 13.85625 18.625 14.8125 C18 18 18 18 16 21 C14.125 20.8125 14.125 20.8125 12 20 C10.47835901 17.10888212 10 15.28176588 10 12 C8.02 12 6.04 12 4 12 C3.67 11.01 3.34 10.02 3 9 C0.98491642 8.26676204 0.98491642 8.26676204 -1 8 C-0.67 7.34 -0.34 6.68 0 6 C0.66 6 1.32 6 2 6 C1.34 5.01 0.68 4.02 0 3 C0 2.01 0 1.02 0 0 Z " fill="#0B00D7" transform="translate(136,236)"/>
<path d="M0 0 C0.33 0 0.66 0 1 0 C1 4.29 1 8.58 1 13 C2.98 13 4.96 13 7 13 C9.5803954 14.06643648 11.63078593 15.48370299 14 17 C14 17.99 14 18.98 14 20 C12.68 20 11.36 20 10 20 C10.66 22.31 11.32 24.62 12 27 C11.34 27 10.68 27 10 27 C10.33 27.99 10.66 28.98 11 30 C11.53625 29.773125 12.0725 29.54625 12.625 29.3125 C16.06081901 28.86041855 18.05766694 30.32821985 21 32 C20.67 32.99 20.34 33.98 20 35 C16.8125 35.3125 16.8125 35.3125 13 35 C10.375 32.6875 10.375 32.6875 8 30 C6.35534054 28.96420415 4.69117981 27.95796066 3 27 C3.176521 27.71542969 3.35304199 28.43085938 3.53491211 29.16796875 C4.34045575 32.44418177 5.13902669 35.72205696 5.9375 39 C6.21529297 40.12535156 6.49308594 41.25070313 6.77929688 42.41015625 C8.2023358 48.27376244 9.41834914 53.99206198 10 60 C-0.00772125 49.99227875 -1.09807654 24.05330352 -1.25 10.5625 C-1.19166884 6.91194163 -0.80167988 3.56230336 0 0 Z " fill="#FF00FF" transform="translate(94,158)"/>
<path d="M0 0 C0.33 0 0.66 0 1 0 C5.06947791 18.08292201 0.0604602 41.12193566 -7 58 C-7.66 58.66 -8.32 59.32 -9 60 C-8.19589975 53.06845225 -6.53301504 46.34806628 -4.9375 39.5625 C-4.65583984 38.35400391 -4.37417969 37.14550781 -4.08398438 35.90039062 C-3.39197558 32.93296307 -2.6972374 29.96620257 -2 27 C-6.29730982 29.73725383 -6.29730982 29.73725383 -9.9375 33.25 C-12.89606814 35.76030024 -15.25028668 35.28843949 -19 35 C-19 33.68 -19 32.36 -19 31 C-13.375 28.875 -13.375 28.875 -10 30 C-9.67 29.01 -9.34 28.02 -9 27 C-9.66 26.67 -10.32 26.34 -11 26 C-10.34 24.02 -9.68 22.04 -9 20 C-10.32 20 -11.64 20 -13 20 C-13 19.01 -13 18.02 -13 17 C-7.79253845 13.66722461 -6.6233989 13 0 13 C0 8.71 0 4.42 0 0 Z " fill="#FF00FF" transform="translate(206,158)"/>
<path d="M0 0 C0.66 0 1.32 0 2 0 C2.33 1.65 2.66 3.3 3 5 C3.99 5 4.98 5 6 5 C6 4.34 6 3.68 6 3 C5.34 3 4.68 3 4 3 C3.67 2.01 3.34 1.02 3 0 C5.4375 0.375 5.4375 0.375 8 1 C8.33 1.66 8.66 2.32 9 3 C9.94875 3.04125 10.8975 3.0825 11.875 3.125 C15 4 15 4 16.0625 5.83984375 C16.80759432 7.87810658 17.45466321 9.899975 18 12 C18.99 12 19.98 12 21 12 C21.14695313 11.43410156 21.29390625 10.86820313 21.4453125 10.28515625 C22.13588567 8.0269026 22.81751734 6.04760785 24 4 C27.125 3.125 27.125 3.125 30 3 C30.33 2.34 30.66 1.68 31 1 C33.0625 0.375 33.0625 0.375 35 0 C35.495 1.485 35.495 1.485 36 3 C36.99 3.33 37.98 3.66 39 4 C38.25 5.9375 38.25 5.9375 37 8 C35.67696283 8.3721042 34.34262065 8.70630173 33 9 C32.34 9.99 31.68 10.98 31 12 C28.375 12.1875 28.375 12.1875 26 12 C24.68 14.97 23.36 17.94 22 21 C20.35 21 18.7 21 17 21 C15.68 18.03 14.36 15.06 13 12 C11.824375 12.0928125 11.824375 12.0928125 10.625 12.1875 C9.325625 12.0946875 9.325625 12.0946875 8 12 C7.34 11.01 6.68 10.02 6 9 C4.35636866 8.27840576 2.68949614 7.60648579 1 7 C0 6 0 6 -0.0625 2.9375 C-0.041875 1.968125 -0.02125 0.99875 0 0 Z " fill="#E80000" transform="translate(131,244)"/>
<path d="M0 0 C2.8125 2.375 2.8125 2.375 5 5 C5 5.99 5 6.98 5 8 C3.700625 8.226875 2.40125 8.45375 1.0625 8.6875 C-6.84361912 10.45956118 -13.02096603 14.74072016 -19.17578125 19.86328125 C-21 21 -21 21 -25 21 C-25.14016736 17.05779287 -25.21747646 13.40628297 -22.5390625 10.3125 C-20.42997159 8.72852969 -18.25617125 7.36661565 -16 6 C-15.07574219 5.35417969 -14.15148437 4.70835937 -13.19921875 4.04296875 C-4.79944287 -1.71980036 -4.79944287 -1.71980036 0 0 Z " fill="#00000B" transform="translate(177,273)"/>
<path d="M0 0 C4.31314465 1.15626696 7.11665646 3.37820314 10.65625 6.01953125 C13.02606683 7.82949497 13.02606683 7.82949497 15.296875 9.09765625 C18.0580339 10.72253577 19.89599573 11.99671899 20.78125 15.1484375 C21.0414247 17.40211296 21.16738411 19.57293403 21.1328125 21.83984375 C15.87325461 21.39305567 13.14357559 19.68723334 9.0703125 16.40234375 C3.07655388 11.59653729 -1.23611922 9.73761649 -8.8671875 8.83984375 C-8.52812427 5.78827464 -7.60677077 4.50502224 -5.6796875 2.02734375 C-2.8671875 -0.16015625 -2.8671875 -0.16015625 0 0 Z " fill="#00000B" transform="translate(127.8671875,272.16015625)"/>
<path d="M0 0 C0.66 0 1.32 0 2 0 C2.31497105 2.43720319 2.62724873 4.87469453 2.9375 7.3125 C3.0310376 8.04001465 3.1245752 8.7675293 3.22094727 9.51708984 C3.75061649 13.71829822 4.15689358 17.89836581 4.4375 22.125 C4.78847069 26.4341402 5.72247156 29.3361499 8 33 C9.98 31.68 11.96 30.36 14 29 C13.690625 29.721875 13.38125 30.44375 13.0625 31.1875 C11.50836296 35.30139217 10.5889083 37.74415515 11.99609375 42.04296875 C12.47175781 43.08066406 12.94742188 44.11835938 13.4375 45.1875 C16 50.85013624 16 50.85013624 16 53 C14.33388095 53.042721 12.66617115 53.04063832 11 53 C9.4442535 51.4442535 9.58163232 49.64897743 9.25 47.5 C8.34315008 42.64486506 6.6062278 38.99273864 4.0234375 34.8125 C3 33 3 33 3 31 C2.4225 30.7525 1.845 30.505 1.25 30.25 C-1.32939979 28.81700012 -3.06121592 27.21575324 -5 25 C-5 24.34 -5 23.68 -5 23 C-4.01 23.33 -3.02 23.66 -2 24 C-1.97494385 23.30849854 -1.9498877 22.61699707 -1.92407227 21.90454102 C-1.80847839 18.79032134 -1.68558758 15.67643211 -1.5625 12.5625 C-1.52318359 11.47388672 -1.48386719 10.38527344 -1.44335938 9.26367188 C-1.40146484 8.22919922 -1.35957031 7.19472656 -1.31640625 6.12890625 C-1.27974854 5.17056885 -1.24309082 4.21223145 -1.20532227 3.22485352 C-1 1 -1 1 0 0 Z " fill="#FF00DC" transform="translate(180,247)"/>
<path d="M0 0 C0.99 0.33 1.98 0.66 3 1 C3.33 8.59 3.66 16.18 4 24 C4.99 23.67 5.98 23.34 7 23 C5.55922954 26.36179774 3.75249979 28.59156268 1 31 C0.34 31 -0.32 31 -1 31 C-1.2475 31.825 -1.495 32.65 -1.75 33.5 C-2.7154324 36.20321071 -3.7210098 38.435011 -5.0625 40.9375 C-6.9581625 44.58840555 -7.58072638 47.89111853 -8 52 C-9 53 -9 53 -11.5625 53.0625 C-12.366875 53.041875 -13.17125 53.02125 -14 53 C-13.54636829 51.41531323 -13.08688548 49.83230076 -12.625 48.25 C-12.36976562 47.36828125 -12.11453125 46.4865625 -11.8515625 45.578125 C-11 43 -11 43 -9.8828125 40.82421875 C-8.62206744 38.21905086 -9.19941993 36.73531523 -10 34 C-10.63437344 32.3207762 -11.29289322 30.64991582 -12 29 C-9.03 30.98 -9.03 30.98 -6 33 C-2.47357605 27.39240781 -2.29081366 21.88126076 -1.875 15.375 C-1.72931788 13.3201153 -1.58098633 11.26541629 -1.4296875 9.2109375 C-1.37022949 8.30649902 -1.31077148 7.40206055 -1.24951172 6.47021484 C-1.02212687 4.21906031 -0.61419912 2.17346624 0 0 Z " fill="#FF00DC" transform="translate(119,247)"/>
<path d="M0 0 C2.375 0.75 2.375 0.75 5 2 C5.28488281 2.6496875 5.56976563 3.299375 5.86328125 3.96875 C6.84560741 6.17689809 6.84560741 6.17689809 9.14453125 7.046875 C17.77537498 9.3214751 27.36664971 11.19277714 35.6875 7.0625 C37.3271875 6.0415625 37.3271875 6.0415625 39 5 C39.66 4.67 40.32 4.34 41 4 C39.21560614 8.54209347 36.08494648 10.97030664 31.76953125 13.1015625 C28.4005977 14.19444644 25.53815535 14.26525067 22 14.25 C20.205625 14.25773438 20.205625 14.25773438 18.375 14.265625 C15.10595459 14.00833902 12.99130127 13.2325965 10 12 C7.77892589 11.96476623 7.77892589 11.96476623 5.6875 12.375 C4.470625 12.58125 3.25375 12.7875 2 13 C1.66127487 11.58461283 1.32925376 10.16762037 1 8.75 C0.814375 7.96109375 0.62875 7.1721875 0.4375 6.359375 C0 4 0 4 0 0 Z " fill="#FF001A" transform="translate(97,185)"/>
<path d="M0 0 C-0.14230808 1.41702513 -0.28900746 2.8336096 -0.4375 4.25 C-0.51871094 5.03890625 -0.59992188 5.8278125 -0.68359375 6.640625 C-0.97634993 8.82364639 -1.42064419 10.8773182 -2 13 C-3.92057292 12.67447917 -5.84114583 12.34895833 -7.76171875 12.0234375 C-10.0760828 11.85504707 -10.0760828 11.85504707 -12.34375 12.953125 C-18.13014158 15.23364403 -25.62390462 15.00300537 -31.55078125 13.2421875 C-35.32616896 11.43625816 -38.25748002 9.19960664 -41 6 C-40.67 5.34 -40.34 4.68 -40 4 C-38.6078125 4.9590625 -38.6078125 4.9590625 -37.1875 5.9375 C-30.40166223 10.3283362 -22.5505742 9.7483411 -14.76953125 8.46875 C-10.78213738 7.52078758 -10.78213738 7.52078758 -7 6 C-5.85985291 4.04266576 -5.85985291 4.04266576 -5 2 C-2 0 -2 0 0 0 Z " fill="#FF001A" transform="translate(204,185)"/>
<path d="M0 0 C1.9375 0.375 1.9375 0.375 4 1 C4.33 1.66 4.66 2.32 5 3 C6.98 3 8.96 3 11 3 C11 2.34 11 1.68 11 1 C13.31 1 15.62 1 18 1 C18 1.66 18 2.32 18 3 C19.98 3 21.96 3 24 3 C24.33 2.34 24.66 1.68 25 1 C26.32 1 27.64 1 29 1 C29 1.66 29 2.32 29 3 C28.01 3 27.02 3 26 3 C25.67 3.99 25.34 4.98 25 6 C23.02 6 21.04 6 19 6 C18.87625 6.928125 18.7525 7.85625 18.625 8.8125 C18 12 18 12 16 15 C14.125 14.8125 14.125 14.8125 12 14 C10.47835901 11.10888212 10 9.28176588 10 6 C8.02 6 6.04 6 4 6 C3.67 5.01 3.34 4.02 3 3 C0.98491642 2.26676204 0.98491642 2.26676204 -1 2 C-0.67 1.34 -0.34 0.68 0 0 Z " fill="#FF00FF" transform="translate(136,242)"/>
<path d="M0 0 C0.66 0 1.32 0 2 0 C1.84660156 0.80695313 1.69320312 1.61390625 1.53515625 2.4453125 C0.9111048 6.59047179 0.65372796 10.6922296 0.4375 14.875 C0.39431641 15.65875 0.35113281 16.4425 0.30664062 17.25 C0.20146649 19.16650649 0.10032075 21.08323333 0 23 C-0.66 22.67 -1.32 22.34 -2 22 C-2 16.72 -2 11.44 -2 6 C-4.67888718 10.01833077 -6.36011902 12.75183144 -8.0859375 17 C-10.22660008 21.6838429 -12.83128535 26.89683844 -16.55078125 30.50390625 C-18.37595358 32.38811381 -19.17430207 34.27678769 -20.1875 36.6875 C-20.70376953 37.89986328 -20.70376953 37.89986328 -21.23046875 39.13671875 C-21.61138672 40.05904297 -21.61138672 40.05904297 -22 41 C-22.33 41 -22.66 41 -23 41 C-21.74087529 25.89050352 -11.75216836 14.51722569 -2.17993164 3.45776367 C-0.90531901 1.98989774 -0.90531901 1.98989774 0 0 Z " fill="#D00000" transform="translate(123,116)"/>
<path d="M0 0 C0.66 0 1.32 0 2 0 C3.29345703 1.33837891 3.29345703 1.33837891 4.7578125 3.2265625 C5.29752686 3.92233398 5.83724121 4.61810547 6.39331055 5.33496094 C6.96476807 6.09067383 7.53622559 6.84638672 8.125 7.625 C8.70741455 8.39102539 9.2898291 9.15705078 9.88989258 9.94628906 C25.57512805 30.9352591 25.57512805 30.9352591 25 41 C22.39038209 38.39038209 21.47514469 35.57657015 20.09765625 32.19140625 C18.96215218 29.92443905 17.80373094 28.75054968 16 27 C11.98337073 21.26717459 8.57398666 15.50270314 6 9 C5.34 8.01 4.68 7.02 4 6 C4 7.98 4 9.96 4 12 C3.34 11.67 2.68 11.34 2 11 C1.3671875 8.49609375 1.3671875 8.49609375 0.875 5.4375 C0.70742187 4.42558594 0.53984375 3.41367188 0.3671875 2.37109375 C0.24601563 1.58863281 0.12484375 0.80617188 0 0 Z " fill="#D70000" transform="translate(176,116)"/>
<path d="M0 0 C0.33 0 0.66 0 1 0 C1 3.63 1 7.26 1 11 C2.258125 9.989375 3.51625 8.97875 4.8125 7.9375 C6.95703125 6.21484375 6.95703125 6.21484375 9 5 C9.99 5.33 10.98 5.66 12 6 C11.39671875 6.44730469 10.7934375 6.89460937 10.171875 7.35546875 C1.73653055 13.73639867 -1.69890312 18.97379618 -5 29 C-5.66 29 -6.32 29 -7 29 C-6.3850185 22.39867961 -4.82360905 16.34537846 -2.9375 10 C-2.65583984 9.03449219 -2.37417969 8.06898438 -2.08398438 7.07421875 C-1.39475721 4.71449184 -0.69999989 2.35654915 0 0 Z " fill="#FF0005" transform="translate(224,177)"/>
<path d="M0 0 C1.89164255 2.83746383 2.62301742 4.73075499 3.5078125 7.96484375 C3.77207031 8.92970703 4.03632812 9.89457031 4.30859375 10.88867188 C4.57800781 11.89478516 4.84742187 12.90089844 5.125 13.9375 C5.54072266 15.44086914 5.54072266 15.44086914 5.96484375 16.97460938 C7.10152468 21.17136977 8 24.62087321 8 29 C7.34 29 6.68 29 6 29 C5.74347656 28.154375 5.48695312 27.30875 5.22265625 26.4375 C2.3555517 17.94237541 -0.92574902 13.37855037 -8 8 C-9.0177735 7.01809517 -10.02514554 6.02452857 -11 5 C-5.96014269 5.44469329 -3.62365012 7.71343362 0 11 C0 7.37 0 3.74 0 0 Z " fill="#FF0005" transform="translate(76,177)"/>
<path d="M0 0 C0.33 0.66 0.66 1.32 1 2 C0.18208984 2.31130859 0.18208984 2.31130859 -0.65234375 2.62890625 C-5.20612234 4.48933887 -8.84104437 6.52226345 -12.625 9.6875 C-16.50623121 12.87979562 -18.99932507 13.89360266 -24 14 C-22.87463165 10.62389495 -21.86584249 10.06498545 -18.95703125 8.24609375 C-16.49705974 6.67976458 -14.1304157 4.99704888 -11.75 3.3125 C-5.05393947 -1.42547011 -5.05393947 -1.42547011 0 0 Z " fill="#0000FF" transform="translate(177,273)"/>
<path d="M0 0 C4.54452536 0.50128291 7.2808061 1.52377764 10.9375 4.25 C11.78957031 4.87777344 12.64164063 5.50554687 13.51953125 6.15234375 C14.33808594 6.76207031 15.15664062 7.37179687 16 8 C17.37370816 8.9393919 18.74852496 9.87716706 20.125 10.8125 C21.548125 11.8953125 21.548125 11.8953125 23 13 C23 13.66 23 14.32 23 15 C16.837009 14.86887253 14.01159816 12.68386266 9.35546875 8.7890625 C5.86688163 6.13935619 2.07323159 4.55033164 -2 3 C-1.34 2.01 -0.68 1.02 0 0 Z " fill="#0000FF" transform="translate(125,272)"/>
<path d="M0 0 C0.33 0 0.66 0 1 0 C1.08302368 1.04341553 1.08302368 1.04341553 1.16772461 2.10791016 C1.42166855 5.28049178 1.67954821 8.45274183 1.9375 11.625 C2.02451172 12.71941406 2.11152344 13.81382812 2.20117188 14.94140625 C2.28818359 16.00488281 2.37519531 17.06835938 2.46484375 18.1640625 C2.543396 19.13811035 2.62194824 20.1121582 2.70288086 21.11572266 C3.01087938 24.10561134 3.47612313 27.04095922 4 30 C4.66 30 5.32 30 6 30 C5.67 33.63 5.34 37.26 5 41 C4.34 41 3.68 41 3 41 C2.80664062 39.79601562 2.61328125 38.59203125 2.4140625 37.3515625 C2.15146395 35.77597123 1.88841999 34.20045415 1.625 32.625 C1.49867187 31.8309375 1.37234375 31.036875 1.2421875 30.21875 C1.11328125 29.45820313 0.984375 28.69765625 0.8515625 27.9140625 C0.73635254 27.2123291 0.62114258 26.5105957 0.50244141 25.78759766 C0.0912785 23.7650146 0.0912785 23.7650146 -2 22 C-2.01171875 18.76953125 -2.01171875 18.76953125 -1.6875 14.8125 C-1.58824219 13.51957031 -1.48898438 12.22664062 -1.38671875 10.89453125 C-1.02349047 7.23656563 -0.55129945 3.63292201 0 0 Z " fill="#FF002D" transform="translate(93,127)"/>
<path d="M0 0 C0.33 0 0.66 0 1 0 C1.33695862 2.72876308 1.66968429 5.45793163 2 8.1875 C2.09539062 8.95642578 2.19078125 9.72535156 2.2890625 10.51757812 C3.28716605 18.82322554 3.28716605 18.82322554 3 22 C2.34 22.66 1.68 23.32 1 24 C0.45051478 25.82796601 0.45051478 25.82796601 0.1484375 27.9140625 C0.01953125 28.67460937 -0.109375 29.43515625 -0.2421875 30.21875 C-0.36851562 31.0128125 -0.49484375 31.806875 -0.625 32.625 C-0.7590625 33.42679688 -0.893125 34.22859375 -1.03125 35.0546875 C-1.36134789 37.03527484 -1.68161083 39.01749675 -2 41 C-2.66 41 -3.32 41 -4 41 C-4.33 37.37 -4.66 33.74 -5 30 C-4.34 30 -3.68 30 -3 30 C-1.66317243 20.00624051 -0.59788123 10.0695786 0 0 Z " fill="#FF002D" transform="translate(207,127)"/>
<path d="M0 0 C0.804375 0.144375 1.60875 0.28875 2.4375 0.4375 C3.0975 1.4275 3.7575 2.4175 4.4375 3.4375 C5.4275 3.7675 6.4175 4.0975 7.4375 4.4375 C7.1075 5.7575 6.7775 7.0775 6.4375 8.4375 C5.880625 8.23125 5.32375 8.025 4.75 7.8125 C2.35704784 7.22065588 2.35704784 7.22065588 -0.0625 8.4375 C-2.81588878 9.53885551 -3.84165413 9.44522069 -6.5625 8.4375 C-5.9025 8.1075 -5.2425 7.7775 -4.5625 7.4375 C-4.8925 6.4475 -5.2225 5.4575 -5.5625 4.4375 C-4.05124951 1.49895739 -3.30443657 0.5641721 0 0 Z " fill="#FF0041" transform="translate(189.5625,180.5625)"/>
<path d="M0 0 C0.33 0.66 0.66 1.32 1 2 C-1.08070075 6.23492449 -4.12485296 9.57317072 -7.3125 13 C-7.77333984 13.50789063 -8.23417969 14.01578125 -8.70898438 14.5390625 C-11.91532619 18.01743054 -15.24336995 21.11762095 -19 24 C-19.66 24 -20.32 24 -21 24 C-19.59112323 20.79288738 -17.91307764 18.68714614 -15.41015625 16.25 C-14.70826172 15.5590625 -14.00636719 14.868125 -13.28320312 14.15625 C-12.55037109 13.4446875 -11.81753906 12.733125 -11.0625 12 C-9.61359086 10.5856802 -8.16689582 9.16908783 -6.72265625 7.75 C-6.08078369 7.12609375 -5.43891113 6.5021875 -4.77758789 5.859375 C-3.00636975 4.00666282 -1.49334883 2.08050448 0 0 Z " fill="#BD0000" transform="translate(145,113)"/>
<path d="M0 0 C0.64324219 0.64582031 1.28648437 1.29164062 1.94921875 1.95703125 C4.3548042 4.36431376 6.77969029 6.75138636 9.20703125 9.13671875 C10.74229703 10.65353498 12.2774507 12.17046469 13.8125 13.6875 C14.99489258 14.84475586 14.99489258 14.84475586 16.20117188 16.02539062 C17.31782227 17.13237305 17.31782227 17.13237305 18.45703125 18.26171875 C19.13741455 18.93162842 19.81779785 19.60153809 20.51879883 20.29174805 C22 22 22 22 22 24 C18.33620697 22.42491141 15.70148695 20.15806427 12.75 17.5 C11.85796875 16.7059375 10.9659375 15.911875 10.046875 15.09375 C8 13 8 13 8 11 C7.34 11 6.68 11 6 11 C3 7.53846154 3 7.53846154 3 5 C2.34 5 1.68 5 1 5 C0.67 3.35 0.34 1.7 0 0 Z " fill="#D90000" transform="translate(155,113)"/>
<path d="M0 0 C0.99 0 1.98 0 3 0 C2.76150722 4.69035801 2.6177954 7.12781826 -0.125 11 C-3.66837056 13.46495343 -5.77165483 13.41454364 -10 13 C-10 11.68 -10 10.36 -10 9 C-4.375 6.875 -4.375 6.875 -1 8 C-0.67 7.01 -0.34 6.02 0 5 C-0.66 4.67 -1.32 4.34 -2 4 C-1.34 2.68 -0.68 1.36 0 0 Z " fill="#0000E1" transform="translate(197,180)"/>
<path d="M0 0 C1.32 0.33 2.64 0.66 4 1 C4.33 2.32 4.66 3.64 5 5 C4.34 5 3.68 5 3 5 C3.33 5.99 3.66 6.98 4 8 C4.53625 7.773125 5.0725 7.54625 5.625 7.3125 C9.06081901 6.86041855 11.05766694 8.32821985 14 10 C13.67 10.99 13.34 11.98 13 13 C8.77165483 13.41454364 6.66837056 13.46495343 3.125 11 C0.3822046 7.12781826 0.23849278 4.69035801 0 0 Z " fill="#0000E1" transform="translate(101,180)"/>
<path d="M0 0 C0.33 0 0.66 0 1 0 C2.20568053 4.67201205 2.09382426 9.21496292 2 14 C1.45730469 14.26554688 0.91460937 14.53109375 0.35546875 14.8046875 C-0.35996094 15.15789062 -1.07539063 15.51109375 -1.8125 15.875 C-2.52019531 16.22304687 -3.22789062 16.57109375 -3.95703125 16.9296875 C-6.21246418 18.0656486 -6.21246418 18.0656486 -9 20 C-10.32 20 -11.64 20 -13 20 C-13 19.01 -13 18.02 -13 17 C-7.79253845 13.66722461 -6.6233989 13 0 13 C0 8.71 0 4.42 0 0 Z " fill="#0000FF" transform="translate(206,158)"/>
<path d="M0 0 C0.33 0 0.66 0 1 0 C1 4.29 1 8.58 1 13 C2.98 13 4.96 13 7 13 C9.5803954 14.06643648 11.63078593 15.48370299 14 17 C14 17.99 14 18.98 14 20 C8.96546471 19.52052045 6.08738583 17.90658548 2 15 C1.01 14.67 0.02 14.34 -1 14 C-1.18451025 4.58997722 -1.18451025 4.58997722 0 0 Z " fill="#0000FF" transform="translate(94,158)"/>
<path d="M0 0 C2 2 2 2 2.13525391 4.52197266 C2.08288574 5.5588623 2.03051758 6.59575195 1.9765625 7.6640625 C1.89921875 9.34628906 1.89921875 9.34628906 1.8203125 11.0625 C1.75585938 12.238125 1.69140625 13.41375 1.625 14.625 C1.56828125 15.80835938 1.5115625 16.99171875 1.453125 18.2109375 C1.31133757 21.14121112 1.15989667 24.07066772 1 27 C-0.98 25.68 -2.96 24.36 -5 23 C-3 22 -3 22 -1 22 C-1.00523682 21.36908447 -1.01047363 20.73816895 -1.01586914 20.08813477 C-1.03657826 17.24626653 -1.04964066 14.40441412 -1.0625 11.5625 C-1.07087891 10.56927734 -1.07925781 9.57605469 -1.08789062 8.55273438 C-1.09111328 7.60849609 -1.09433594 6.66425781 -1.09765625 5.69140625 C-1.10289307 4.81685791 -1.10812988 3.94230957 -1.11352539 3.04125977 C-1 1 -1 1 0 0 Z " fill="#0000FF" transform="translate(178,240)"/>
<path d="M0 0 C0.66 0.33 1.32 0.66 2 1 C2 8.26 2 15.52 2 23 C3.32 22.67 4.64 22.34 6 22 C4.3545622 23.68762851 2.68711423 25.3540349 1 27 C0.67 27 0.34 27 0 27 C-0.19622046 22.87536584 -0.38050216 18.75028427 -0.5625 14.625 C-0.61857422 13.449375 -0.67464844 12.27375 -0.73242188 11.0625 C-0.78076172 9.94101563 -0.82910156 8.81953125 -0.87890625 7.6640625 C-0.9260376 6.62717285 -0.97316895 5.5902832 -1.02172852 4.52197266 C-1 2 -1 2 0 0 Z " fill="#0000FF" transform="translate(122,240)"/>
<path d="M0 0 C0.66 0 1.32 0 2 0 C1.84660156 0.80695313 1.69320312 1.61390625 1.53515625 2.4453125 C0.9111048 6.59047179 0.65372796 10.6922296 0.4375 14.875 C0.39431641 15.65875 0.35113281 16.4425 0.30664062 17.25 C0.20146649 19.16650649 0.10032075 21.08323333 0 23 C-0.66 22.67 -1.32 22.34 -2 22 C-2 16.72 -2 11.44 -2 6 C-3.32 7.98 -4.64 9.96 -6 12 C-6.66 12 -7.32 12 -8 12 C-6.59808647 9.00745382 -4.96632511 6.4045389 -3 3.75 C-2.484375 3.04359375 -1.96875 2.3371875 -1.4375 1.609375 C-0.963125 1.07828125 -0.48875 0.5471875 0 0 Z " fill="#D6000C" transform="translate(123,116)"/>
<path d="M0 0 C3.45882743 2.30588495 3.57293717 2.97901171 4.60546875 6.83203125 C4.86650391 7.79560547 5.12753906 8.75917969 5.39648438 9.75195312 C5.65751953 10.76193359 5.91855469 11.77191406 6.1875 12.8125 C6.46013672 13.81087891 6.73277344 14.80925781 7.01367188 15.83789062 C8.21368393 20.35222167 9.16308133 24.30230772 9 29 C6.8006192 26.8006192 6.40510298 25.60576627 5.52734375 22.67578125 C5.26759766 21.81146484 5.00785156 20.94714844 4.74023438 20.05664062 C4.47533203 19.15107422 4.21042969 18.24550781 3.9375 17.3125 C3.66873047 16.42626953 3.39996094 15.54003906 3.12304688 14.62695312 C1.67567864 9.75065765 0.56033576 5.05685729 0 0 Z " fill="#2A00FF" transform="translate(95,189)"/>
<path d="M0 0 C1.21474475 3.64423425 0.70193132 4.28488743 -0.87109375 7.66796875 C-1.28037109 8.56064453 -1.68964844 9.45332031 -2.11132812 10.37304688 C-2.54896484 11.30181641 -2.98660156 12.23058594 -3.4375 13.1875 C-3.87126953 14.12787109 -4.30503906 15.06824219 -4.75195312 16.03710938 C-5.82600195 18.36224805 -6.90894188 20.6828064 -8 23 C-8.99 23 -9.98 23 -11 23 C-8.35268097 14.64696852 -4.61806703 7.43301238 0 0 Z " fill="#FF0000" transform="translate(80,113)"/>
<path d="M0 0 C3.21719767 3.74274431 5.53817763 7.64678977 7.6875 12.0625 C8.14866211 12.97999023 8.14866211 12.97999023 8.61914062 13.91601562 C10.09172703 16.89663362 11.38662644 19.72049603 12 23 C11.01 23 10.02 23 9 23 C7.4908559 19.73330954 5.99428299 16.46101184 4.5 13.1875 C4.07074219 12.25873047 3.64148438 11.32996094 3.19921875 10.37304688 C2.79316406 9.48037109 2.38710937 8.58769531 1.96875 7.66796875 C1.59169922 6.84578857 1.21464844 6.0236084 0.82617188 5.17651367 C0 3 0 3 0 0 Z " fill="#FF0000" transform="translate(220,113)"/>
<path d="M0 0 C1.27308276 2.54616551 0.831387 3.35890169 0.109375 6.0703125 C-0.10589844 6.885 -0.32117188 7.6996875 -0.54296875 8.5390625 C-0.77628906 9.39242187 -1.00960937 10.24578125 -1.25 11.125 C-1.46785156 11.95515625 -1.68570313 12.7853125 -1.91015625 13.640625 C-3.31875703 18.89610627 -5.01165165 23.9355598 -7 29 C-7.33 29 -7.66 29 -8 29 C-7.28275004 23.10887956 -5.99807557 17.44235833 -4.5625 11.6875 C-4.34529297 10.78193359 -4.12808594 9.87636719 -3.90429688 8.94335938 C-3.68966797 8.07904297 -3.47503906 7.21472656 -3.25390625 6.32421875 C-3.06127197 5.54135498 -2.8686377 4.75849121 -2.67016602 3.9519043 C-2 2 -2 2 0 0 Z " fill="#2600FF" transform="translate(205,189)"/>
<path d="M0 0 C1.9375 0.8125 1.9375 0.8125 4 2 C4.33 2.99 4.66 3.98 5 5 C4.67 5.66 4.34 6.32 4 7 C4.66 7.33 5.32 7.66 6 8 C2.15055126 9.48055721 -0.22818235 8.33585208 -4 7 C-5.32 7 -6.64 7 -8 7 C-8 6.01 -8 5.02 -8 4 C-6.02 3.34 -4.04 2.68 -2 2 C-1.67 2.99 -1.34 3.98 -1 5 C-0.01 4.67 0.98 4.34 2 4 C1.34 2.68 0.68 1.36 0 0 Z " fill="#FF0048" transform="translate(112,181)"/>
<path d="M0 0 C2.31 0 4.62 0 7 0 C6.38461538 7.50769231 6.38461538 7.50769231 4.4375 10 C3.7259375 10.495 3.7259375 10.495 3 11 C0 4.5 0 4.5 0 0 Z " fill="#CD0000" transform="translate(147,243)"/>
<path d="M0 0 C0.33 0 0.66 0 1 0 C1.97901226 9.18856081 2.29857647 17.1032529 -0.2109375 26.1328125 C-1.02049879 29.0744857 -1.54376736 31.98528626 -2 35 C-2.66 35 -3.32 35 -4 35 C-3.44326662 30.26776629 -2.77124483 25.57729123 -2 20.875 C-0.91044626 13.93925866 -0.39911263 7.00547695 0 0 Z " fill="#1300FF" transform="translate(203,130)"/>
<path d="M0 0 C0.33 0 0.66 0 1 0 C1.0501123 0.66008057 1.10022461 1.32016113 1.15185547 2.00024414 C1.38547136 5.02162339 1.63014493 8.04201165 1.875 11.0625 C1.95363281 12.10083984 2.03226562 13.13917969 2.11328125 14.20898438 C2.57053775 19.74882277 3.31152226 24.70943642 5 30 C5.125 32.9375 5.125 32.9375 5 35 C4.34 35 3.68 35 3 35 C2.52047335 32.29172996 2.04136769 29.58338656 1.5625 26.875 C1.42779297 26.11445313 1.29308594 25.35390625 1.15429688 24.5703125 C0.88891273 23.0686266 0.62594398 21.56651169 0.36547852 20.06396484 C0.05666061 18.31997917 -0.2809641 16.58113131 -0.625 14.84375 C-1.04538668 11.65581769 -0.88211472 8.82114717 -0.5625 5.625 C-0.46066406 4.56539062 -0.35882813 3.50578125 -0.25390625 2.4140625 C-0.17011719 1.61742187 -0.08632812 0.82078125 0 0 Z " fill="#1300FF" transform="translate(97,130)"/>
<path d="M0 0 C0.33 0 0.66 0 1 0 C1.79681084 8.02502344 2.12867289 15.93649887 2 24 C1.34 24 0.68 24 0 24 C-2.28571429 6.85714286 -2.28571429 6.85714286 0 0 Z " fill="#000000" transform="translate(208,148)"/>
<path d="M0 0 C4.32749429 6.49124143 1.99438918 16.54208113 1 24 C0.34 24 -0.32 24 -1 24 C-1.12867289 15.93649887 -0.79681084 8.02502344 0 0 Z " fill="#000000" transform="translate(92,148)"/>
<path d="M0 0 C1.60875 0.2784375 1.60875 0.2784375 3.25 0.5625 C6.40391546 0.9304568 8.09818492 1.04465343 11 0 C10.34 1.32 9.68 2.64 9 4 C9.99 5.32 10.98 6.64 12 8 C11.278125 7.649375 10.55625 7.29875 9.8125 6.9375 C6.63919804 5.87973268 5.17749524 6.16381704 2 7 C1.01 7 0.02 7 -1 7 C-0.01 5.68 0.98 4.36 2 3 C1.34 2.01 0.68 1.02 0 0 Z " fill="#FF000B" transform="translate(145,84)"/>
<path d="M0 0 C0.66 1.32 1.32 2.64 2 4 C2.99 3.34 3.98 2.68 5 2 C4.00640566 3.99162438 3.00954384 5.98124785 2 7.96484375 C0.16204323 11.59050066 -1.57062053 15.18832141 -3 19 C-4.67641098 14.90913548 -3.2409319 11.28488982 -2.0625 7.25 C-1.86720703 6.55261719 -1.67191406 5.85523438 -1.47070312 5.13671875 C-0.9891754 3.42201027 -0.49574843 1.71065123 0 0 Z " fill="#0000FF" transform="translate(217,182)"/>
<path d="M0 0 C1.66645757 3.08549348 2.73761596 6.12675325 3.6875 9.5 C3.95949219 10.4384375 4.23148438 11.376875 4.51171875 12.34375 C5.00140894 15.00766466 4.88693174 16.47611372 4 19 C3.51080078 17.75283203 3.51080078 17.75283203 3.01171875 16.48046875 C2.35623047 14.85044922 2.35623047 14.85044922 1.6875 13.1875 C1.25824219 12.10855469 0.82898438 11.02960938 0.38671875 9.91796875 C-0.85336541 7.30855223 -1.81531451 5.82591016 -4 4 C-3.67 3.34 -3.34 2.68 -3 2 C-2.34 2.66 -1.68 3.32 -1 4 C-0.67 2.68 -0.34 1.36 0 0 Z " fill="#0000FF" transform="translate(83,182)"/>
<path d="M0 0 C0.66 0 1.32 0 2 0 C2.33801152 2.54112232 2.67053379 5.08276746 3 7.625 C3.09539062 8.33785156 3.19078125 9.05070312 3.2890625 9.78515625 C3.81606101 13.88821609 4.10466984 17.85245742 4 22 C1.22028666 19.22028666 0.88200536 16.75810192 0.68359375 12.98828125 C0.64169922 12.23095703 0.59980469 11.47363281 0.55664062 10.69335938 C0.51732422 9.90767578 0.47800781 9.12199219 0.4375 8.3125 C0.39431641 7.51521484 0.35113281 6.71792969 0.30664062 5.89648438 C0.20072632 3.93118553 0.09987449 1.96561504 0 0 Z " fill="#FF0000" transform="translate(180,247)"/>
<path d="M0 0 C0.66 0.33 1.32 0.66 2 1 C1.88553728 3.56336254 1.75880499 6.12513445 1.625 8.6875 C1.5940625 9.40873047 1.563125 10.12996094 1.53125 10.87304688 C1.30664413 14.97210394 0.82259091 18.24368459 -1 22 C-1.33 22 -1.66 22 -2 22 C-1.85895309 19.08302989 -1.71235186 16.1665198 -1.5625 13.25 C-1.50352539 12.0125 -1.50352539 12.0125 -1.44335938 10.75 C-1.40146484 9.95078125 -1.35957031 9.1515625 -1.31640625 8.328125 C-1.27974854 7.5949707 -1.24309082 6.86181641 -1.20532227 6.10644531 C-0.99885215 3.98822395 -0.56867914 2.0480544 0 0 Z " fill="#FF0000" transform="translate(119,247)"/>
<path d="M0 0 C-0.33 2.97 -0.66 5.94 -1 9 C-4 9 -4 9 -5.6875 7.5 C-6.120625 7.005 -6.55375 6.51 -7 6 C-5.52522876 2.59668175 -4.14385429 0 0 0 Z " fill="#DE0000" transform="translate(204,185)"/>
<path d="M0 0 C4.67692308 1.47692308 4.67692308 1.47692308 6.3125 4.125 C6.539375 4.74375 6.76625 5.3625 7 6 C5.6875 7.5 5.6875 7.5 4 9 C3.01 9 2.02 9 1 9 C0.67 6.03 0.34 3.06 0 0 Z " fill="#DE0000" transform="translate(97,185)"/>
<path d="M0 0 C2.6875 -0.3125 2.6875 -0.3125 5 0 C5.33 1.32 5.66 2.64 6 4 C3 6 3 6 -0.1875 5.625 C-1.115625 5.41875 -2.04375 5.2125 -3 5 C-1.8125 2.5 -1.8125 2.5 0 0 Z " fill="#A3005B" transform="translate(187,181)"/>
<path d="M0 0 C1.32 0 2.64 0 4 0 C4 0.66 4 1.32 4 2 C3.01 2 2.02 2 1 2 C0.67 2.99 0.34 3.98 0 5 C-1.98 5 -3.96 5 -6 5 C-6 5.99 -6 6.98 -6 8 C-6.66 8 -7.32 8 -8 8 C-7.67 6.02 -7.34 4.04 -7 2 C-5.02 2 -3.04 2 -1 2 C-0.67 1.34 -0.34 0.68 0 0 Z " fill="#FF00FF" transform="translate(161,243)"/>
<path d="M0 0 C1.42600325 4.27800976 -0.54362936 6.86765922 -2.4375 10.6875 C-2.77587891 11.38939453 -3.11425781 12.09128906 -3.46289062 12.81445312 C-4.29981348 14.54723706 -5.14877393 16.27419752 -6 18 C-6.66 17.34 -7.32 16.68 -8 16 C-5.36 10.72 -2.72 5.44 0 0 Z " fill="#0000FF" transform="translate(83,120)"/>
<path d="M0 0 C4.34307755 4.664787 6.52826576 10.21573668 9 16 C8.34 16.66 7.68 17.32 7 18 C5.82625827 15.56568361 4.66084237 13.12795818 3.5 10.6875 C3.16613281 9.99720703 2.83226562 9.30691406 2.48828125 8.59570312 C0 3.33984375 0 3.33984375 0 0 Z " fill="#0000FF" transform="translate(217,120)"/>
<path d="M0 0 C0.33 0.66 0.66 1.32 1 2 C0.0625 4.125 0.0625 4.125 -1 6 C-1.66 5.34 -2.32 4.68 -3 4 C-2.01 2.68 -1.02 1.36 0 0 Z " fill="#EE0000" transform="translate(145,113)"/>
<path d="M0 0 C-2.88628401 1.57554035 -5.53342384 2.46276373 -8.75 3.125 C-9.54921875 3.29257813 -10.3484375 3.46015625 -11.171875 3.6328125 C-11.77515625 3.75398437 -12.3784375 3.87515625 -13 4 C-12.67 3.01 -12.34 2.02 -12 1 C-7.64334521 -0.67563646 -4.50462014 -1.36503641 0 0 Z " fill="#0000FF" transform="translate(175,183)"/>
<path d="M0 0 C1.43836751 0.11458693 2.87570966 0.24209116 4.3125 0.375 C5.51326172 0.47941406 5.51326172 0.47941406 6.73828125 0.5859375 C9 1 9 1 12 3 C12 3.66 12 4.32 12 5 C7.71 4.01 3.42 3.02 -1 2 C-0.67 1.34 -0.34 0.68 0 0 Z " fill="#0000FF" transform="translate(127,182)"/>
<path d="M0 0 C1.32 0.33 2.64 0.66 4 1 C3.67 4.3 3.34 7.6 3 11 C2.34 11 1.68 11 1 11 C0.67 7.37 0.34 3.74 0 0 Z " fill="#FF0000" transform="translate(202,157)"/>
<path d="M0 0 C0.99 0 1.98 0 3 0 C2.67 3.63 2.34 7.26 2 11 C1.34 11 0.68 11 0 11 C-0.19406478 9.35492782 -0.38007935 7.70890406 -0.5625 6.0625 C-0.66691406 5.14597656 -0.77132812 4.22945312 -0.87890625 3.28515625 C-0.91886719 2.53105469 -0.95882812 1.77695313 -1 1 C-0.67 0.67 -0.34 0.34 0 0 Z " fill="#FF0000" transform="translate(96,157)"/>
<path d="M0 0 C0.66 0 1.32 0 2 0 C2.66 0.66 3.32 1.32 4 2 C4.33 1.34 4.66 0.68 5 0 C5.66 0 6.32 0 7 0 C6.67 1.65 6.34 3.3 6 5 C4.68 5.33 3.36 5.66 2 6 C0 3 0 3 0 0 Z " fill="#0000FF" transform="translate(147,251)"/>
<path d="M0 0 C0.66 0 1.32 0 2 0 C3.38232443 1.62626404 4.71937515 3.2925002 6 5 C5 7 5 7 4 8 C3.63837971 9.32594105 3.30271961 10.65938457 3 12 C1.57499941 8.00999834 0.59924224 4.19469571 0 0 Z " fill="#FF001C" transform="translate(176,116)"/>
<path d="M0 0 C0 3.64832986 -1.13254911 4.91152352 -3 8 C-3.71143088 9.98451771 -4.38991336 11.98202112 -5 14 C-5.33 14 -5.66 14 -6 14 C-5.66290194 7.48277089 -4.55774263 4.67460782 0 0 Z " fill="#FF003D" transform="translate(157,277)"/>
<path d="M0 0 C3.7282432 2.64901491 5.80140929 4.53252552 7 9 C7.125 11.8125 7.125 11.8125 7 14 C3.29048547 10.29048547 1.90308273 4.83090231 0 0 Z " fill="#FF003D" transform="translate(143,277)"/>
<path d="M0 0 C0.66 0.33 1.32 0.66 2 1 C1.75 2.875 1.75 2.875 1 5 C-1.0625 6.25 -1.0625 6.25 -3 7 C-3.33 5.35 -3.66 3.7 -4 2 C-2.125 0.9375 -2.125 0.9375 0 0 Z " fill="#AA0000" transform="translate(106,204)"/>
<path d="M0 0 C0.66 0 1.32 0 2 0 C1.91291331 1.45945288 1.80473093 2.91765868 1.6875 4.375 C1.62949219 5.18710938 1.57148438 5.99921875 1.51171875 6.8359375 C1 9 1 9 -2 11 C-1.34 7.37 -0.68 3.74 0 0 Z " fill="#170000" transform="translate(206,188)"/>
<path d="M0 0 C0.99 0.33 1.98 0.66 3 1 C3.73046875 3.06640625 3.73046875 3.06640625 4.1875 5.5625 C4.34605469 6.38878906 4.50460938 7.21507812 4.66796875 8.06640625 C4.77753906 8.70449219 4.88710937 9.34257812 5 10 C2.7158631 7.79721592 1.20511218 5.96642998 0 3 C0 2.01 0 1.02 0 0 Z " fill="#0000FF" transform="translate(184,271)"/>
<path d="M0 0 C1 3 1 3 0.22265625 4.82421875 C-0.8515625 6.54947917 -1.92578125 8.27473958 -3 10 C-4.26339822 6.20980534 -3.49719015 4.62477616 -2 1 C-1.34 0.67 -0.68 0.34 0 0 Z " fill="#0000FF" transform="translate(116,271)"/>
<path d="M0 0 C1.65 0 3.3 0 5 0 C4.67 1.65 4.34 3.3 4 5 C3.01 5 2.02 5 1 5 C0.67 3.35 0.34 1.7 0 0 Z " fill="#000000" transform="translate(148,256)"/>
<path d="M0 0 C2.31 0 4.62 0 7 0 C7 0.99 7 1.98 7 3 C4.69 2.67 2.38 2.34 0 2 C0 1.34 0 0.68 0 0 Z " fill="#000000" transform="translate(147,243)"/>
<path d="M0 0 C3.08089673 2.77280706 4.68775452 5.06326356 6 9 C3.5625 7.875 3.5625 7.875 1 6 C0.1875 2.8125 0.1875 2.8125 0 0 Z " fill="#00001C" transform="translate(179,121)"/>
<path d="M0 0 C1 3 1 3 0 6 C-2.5625 7.6875 -2.5625 7.6875 -5 9 C-3.7508258 5.54074837 -2.32472205 2.85306797 0 0 Z " fill="#00001C" transform="translate(121,121)"/>
<path d="M0 0 C0.99 0.495 0.99 0.495 2 1 C2.40729228 3.32156597 2.74438677 5.6568787 3 8 C2.01 8 1.02 8 0 8 C0 5.36 0 2.72 0 0 Z " fill="#000000" transform="translate(253,292)"/>
<path d="M0 0 C0.33 0 0.66 0 1 0 C1 2.64 1 5.28 1 8 C0.01 8 -0.98 8 -2 8 C-1.125 1.125 -1.125 1.125 0 0 Z " fill="#000000" transform="translate(47,292)"/>
<path d="M0 0 C0.99 0 1.98 0 3 0 C3 1.32 3 2.64 3 4 C2.01 4 1.02 4 0 4 C0 2.68 0 1.36 0 0 Z " fill="#000000" transform="translate(284,270)"/>
<path d="M0 0 C0.99 0 1.98 0 3 0 C3 1.32 3 2.64 3 4 C2.01 4 1.02 4 0 4 C0 2.68 0 1.36 0 0 Z " fill="#000000" transform="translate(14,270)"/>
<path d="M0 0 C0.66 0 1.32 0 2 0 C2 1.32 2 2.64 2 4 C1.01 3.67 0.02 3.34 -1 3 C-0.67 2.01 -0.34 1.02 0 0 Z " fill="#000000" transform="translate(275,261)"/>
<path d="M0 0 C0.99 0.33 1.98 0.66 3 1 C2.67 1.99 2.34 2.98 2 4 C1.34 4 0.68 4 0 4 C0 2.68 0 1.36 0 0 Z " fill="#000000" transform="translate(24,261)"/>
<path d="M0 0 C0.99 0.33 1.98 0.66 3 1 C3 1.99 3 2.98 3 4 C2.01 3.67 1.02 3.34 0 3 C0 2.01 0 1.02 0 0 Z " fill="#000000" transform="translate(19,265)"/>
<path d="M0 0 C0.33 0.99 0.66 1.98 1 3 C0.01 3.33 -0.98 3.66 -2 4 C-2 3.01 -2 2.02 -2 1 C-1.34 0.67 -0.68 0.34 0 0 Z " fill="#000000" transform="translate(281,265)"/>
<path d="M0 0 C0.33 0 0.66 0 1 0 C1 1.98 1 3.96 1 6 C0.67 6 0.34 6 0 6 C0 4.02 0 2.04 0 0 Z " fill="#000000" transform="translate(251,294)"/>
<path d="M0 0 C0.33 0 0.66 0 1 0 C1 1.98 1 3.96 1 6 C0.67 6 0.34 6 0 6 C0 4.02 0 2.04 0 0 Z " fill="#000000" transform="translate(49,294)"/>
<path d="M0 0 C0.99 0.495 0.99 0.495 2 1 C2 1.66 2 2.32 2 3 C1.34 3 0.68 3 0 3 C0 2.01 0 1.02 0 0 Z " fill="#000000" transform="translate(257,297)"/>
<path d="M0 0 C0.33 0.99 0.66 1.98 1 3 C0.34 3 -0.32 3 -1 3 C-0.67 2.01 -0.34 1.02 0 0 Z " fill="#000000" transform="translate(43,297)"/>
<path d="" fill="#000000" transform="translate(0,0)"/>
<path d="" fill="#000000" transform="translate(0,0)"/>
</svg>
